<?xml version="1.0" encoding="UTF-8" standalone="no"?>
<svg
   xmlns:dc="http://purl.org/dc/elements/1.1/"
   xmlns:cc="http://creativecommons.org/ns#"
   xmlns:rdf="http://www.w3.org/1999/02/22-rdf-syntax-ns#"
   xmlns:svg="http://www.w3.org/2000/svg"
   xmlns="http://www.w3.org/2000/svg"
   width="89.52076mm"
   height="26.4mm"
   viewBox="0 0 89.52076 26.4"
   version="1.1"
   id="svg302">
  <defs
     id="defs296">
    <clipPath
       clipPathUnits="userSpaceOnUse"
       id="clipPath42">
      <path
         d="M 68.085,119.741 H 247.039 V 162.8 H 68.085 Z"
         id="path40" />
    </clipPath>
    <clipPath
       clipPathUnits="userSpaceOnUse"
       id="clipPath86">
      <path
         d="M 68.085,119.741 H 247.038 V 162.8 H 68.085 Z"
         id="path84" />
    </clipPath>
    <clipPath
       clipPathUnits="userSpaceOnUse"
       id="clipPath102">
      <path
         d="M 68.085,119.741 H 247.039 V 162.8 H 68.085 Z"
         id="path100" />
    </clipPath>
  </defs>
  <metadata
     id="metadata299">
    <rdf:RDF>
      <cc:Work
         rdf:about="">
        <dc:format>image/svg+xml</dc:format>
        <dc:type
           rdf:resource="http://purl.org/dc/dcmitype/StillImage" />
        <dc:title></dc:title>
      </cc:Work>
    </rdf:RDF>
  </metadata>
  <g
     id="layer1"
     transform="translate(83.146373,75.806978)">
    <g
       id="g554"
       transform="matrix(1.3166425,0,0,1.3166425,25.314423,22.990459)">
      <g
         id="g36"
         transform="matrix(0.35277777,0,0,-0.35277777,-103.96525,-15.17476)">
        <g
           id="g38"
           clip-path="url(#clipPath42)">
          <g
             id="g44"
             transform="translate(177.3206,154.939)">
            <path
               d="m 0,0 4.633,-7.212 v 7.196 c 0,0 0.345,0.262 1.249,0.262 0.903,0 1.265,-0.262 1.265,-0.262 V -10.99 c 0,0 -0.345,-0.263 -1.249,-0.263 -0.887,0 -1.232,0.23 -1.232,0.23 l -4.633,7.179 v -7.146 c 0,0 -0.361,-0.263 -1.265,-0.263 -0.887,0 -1.265,0.263 -1.265,0.263 v 10.974 c 0,0 0.345,0.262 1.265,0.262 C -0.361,0.246 0,0 0,0"
               style="fill:#0069a7;fill-opacity:1;fill-rule:nonzero;stroke:none"
               id="path46" />
          </g>
          <g
             id="g48"
             transform="translate(188.1956,154.939)">
            <path
               d="m 0,0 1.626,-2.858 c 0.428,-0.756 0.723,-1.676 0.773,-1.775 0.016,0.099 0.312,1.003 0.772,1.775 L 4.814,0 c 0,0 0.345,0.246 1.182,0.246 0.953,0 1.347,-0.312 1.347,-0.312 L 3.647,-6.423 v -4.567 c 0,0 -0.345,-0.263 -1.248,-0.263 -0.904,0 -1.265,0.263 -1.265,0.263 v 4.6 l -3.68,6.324 c 0,0 0.411,0.312 1.363,0.312 C -0.361,0.246 0,0 0,0"
               style="fill:#0069a7;fill-opacity:1;fill-rule:nonzero;stroke:none"
               id="path50" />
          </g>
          <g
             id="g52"
             transform="translate(204.1136,154.4627)">
            <path
               d="m 0,0 c 0.181,-0.871 -0.279,-1.577 -0.772,-1.758 -0.575,0.378 -1.544,0.739 -2.612,0.739 -1.182,0 -1.922,-0.509 -1.922,-1.281 0,-0.657 0.559,-0.904 1.939,-1.38 l 1.61,-0.542 c 1.725,-0.591 2.677,-1.413 2.677,-3.088 0,-2.054 -1.429,-3.582 -4.599,-3.582 -2.284,0 -3.68,0.789 -4.173,1.232 -0.148,0.657 0.214,1.462 0.723,1.725 0.525,-0.394 2.086,-1.117 3.63,-1.117 1.167,0 1.89,0.493 1.89,1.331 0,0.575 -0.378,0.92 -1.134,1.183 l -2.661,0.854 c -1.38,0.443 -2.415,1.429 -2.415,3.006 0,2.185 1.528,3.516 4.402,3.516 C -1.593,0.838 -0.558,0.345 0,0"
               style="fill:#0069a7;fill-opacity:1;fill-rule:nonzero;stroke:none"
               id="path54" />
          </g>
          <g
             id="g56"
             transform="translate(212.4096,148.8771)">
            <path
               d="m 0,0 h -3.285 v -3.351 h 4.55 c 0,0 0.247,-0.279 0.247,-0.904 0,-0.641 -0.247,-0.936 -0.247,-0.936 h -7.08 V 6.308 H 0.92 c 0,0 0.263,-0.279 0.263,-0.92 C 1.183,4.748 0.92,4.452 0.92,4.452 H -3.285 V 1.856 H 0 c 0,0 0.247,-0.295 0.247,-0.92 C 0.247,0.279 0,0 0,0"
               style="fill:#0069a7;fill-opacity:1;fill-rule:nonzero;stroke:none"
               id="path58" />
          </g>
          <g
             id="g60"
             transform="translate(219.0956,153.444)">
            <path
               d="m 0,0 c -0.657,0 -1.117,-0.131 -1.117,-0.131 v -3.45 h 1.561 c 1.149,0 1.577,0.903 1.577,1.807 C 2.021,-0.772 1.38,0 0,0 m -1.117,-9.495 c 0,0 -0.378,-0.263 -1.281,-0.263 -0.888,0 -1.249,0.263 -1.249,0.263 V 1.314 c 0,0 1.249,0.542 3.368,0.542 3.335,0 4.829,-1.347 4.829,-3.564 0,-2.185 -1.609,-3.187 -2.217,-3.253 L 5.191,-9.446 C 4.928,-9.61 4.189,-9.758 3.663,-9.758 c -0.69,0 -1.199,0.23 -1.199,0.23 l -2.25,3.663 c -0.148,0.263 -0.329,0.427 -0.641,0.427 h -0.69 z"
               style="fill:#0069a7;fill-opacity:1;fill-rule:nonzero;stroke:none"
               id="path62" />
          </g>
          <g
             id="g64"
             transform="translate(229.3466,153.444)">
            <path
               d="m 0,0 c -0.674,0 -1.232,-0.131 -1.232,-0.131 v -7.771 c 0,0 0.443,-0.131 1.264,-0.131 1.824,0 2.925,1.413 2.925,4.008 C 2.957,-1.479 1.889,0 0,0 m -0.198,-9.873 c -1.987,0 -3.564,0.443 -3.564,0.443 V 1.396 c 0,0 1.429,0.46 3.548,0.46 4.025,0 5.701,-1.971 5.701,-5.749 0,-3.91 -1.775,-5.98 -5.685,-5.98"
               style="fill:#0069a7;fill-opacity:1;fill-rule:nonzero;stroke:none"
               id="path66" />
          </g>
          <g
             id="g68"
             transform="translate(239.6956,148.0557)">
            <path
               d="M 0,0 H 3.121 L 1.988,2.743 C 1.823,3.154 1.593,3.844 1.561,3.943 1.528,3.861 1.314,3.121 1.166,2.743 Z M 2.809,6.883 7.343,-4.074 c 0,0 -0.378,-0.296 -1.298,-0.296 -0.87,0 -1.215,0.247 -1.215,0.247 L 3.86,-1.84 h -4.599 l -0.937,-2.283 c 0,0 -0.345,-0.247 -1.199,-0.247 -0.936,0 -1.331,0.296 -1.331,0.296 L 0.345,6.883 c 0,0 0.328,0.247 1.216,0.247 0.903,0 1.248,-0.247 1.248,-0.247"
               style="fill:#0069a7;fill-opacity:1;fill-rule:nonzero;stroke:none"
               id="path70" />
          </g>
          <g
             id="g72"
             transform="translate(155.3483,134.5928)">
            <path
               d="M 0,0 C 0,0 -0.014,0.015 -0.014,0.056 -0.014,0.094 0,0.11 0,0.11 h 0.728 c 0,0 0.015,-0.016 0.015,-0.054 C 0.743,0.016 0.728,0 0.728,0 H 0.441 v -0.869 c 0,0 -0.022,-0.015 -0.075,-0.015 -0.056,0 -0.078,0.015 -0.078,0.015 V 0 Z"
               style="fill:#0069a7;fill-opacity:1;fill-rule:nonzero;stroke:none"
               id="path74" />
          </g>
          <g
             id="g76"
             transform="translate(156.7639,133.7661)">
            <path
               d="m 0,0 c -0.011,-0.006 -0.03,-0.016 -0.064,-0.016 -0.022,0 -0.049,0.006 -0.06,0.016 l -0.222,0.558 c -0.013,0.03 -0.034,0.089 -0.036,0.098 0,-0.004 -0.005,-0.083 -0.009,-0.105 l -0.04,-0.593 c 0,0 -0.02,-0.015 -0.076,-0.015 -0.055,0 -0.078,0.015 -0.078,0.015 l 0.078,0.964 c 0,0 0.02,0.014 0.073,0.014 0.058,0 0.08,-0.014 0.08,-0.014 l 0.256,-0.651 0.034,-0.105 c 0.002,0.004 0.025,0.075 0.036,0.105 l 0.257,0.651 c 0,0 0.023,0.014 0.081,0.014 0.052,0 0.074,-0.014 0.074,-0.014 L 0.46,-0.042 c 0,0 -0.023,-0.015 -0.078,-0.015 -0.055,0 -0.074,0.015 -0.074,0.015 L 0.265,0.552 0.257,0.658 C 0.257,0.656 0.233,0.583 0.223,0.56 Z"
               style="fill:#0069a7;fill-opacity:1;fill-rule:nonzero;stroke:none"
               id="path78" />
          </g>
        </g>
      </g>
      <g
         id="g80"
         transform="matrix(0.35277777,0,0,-0.35277777,-103.96525,-15.17476)">
        <g
           id="g82"
           clip-path="url(#clipPath86)">
          <g
             id="g88"
             transform="translate(168.1946,119.7415)">
            <path
               d="m 0,0 c -0.282,0 -0.507,0.23 -0.507,0.507 v 41.892 c 0,0.281 0.225,0.509 0.507,0.509 0.283,0 0.51,-0.228 0.51,-0.509 V 0.507 C 0.51,0.23 0.283,0 0,0"
               style="fill:#0069a7;fill-opacity:1;fill-rule:nonzero;stroke:none"
               id="path90" />
          </g>
          <g
             id="g92"
             transform="translate(109.7219,122.3453)">
            <path
               d="M 0,0 C -0.012,-0.056 -0.025,-0.113 -0.039,-0.171 -0.055,-0.24 -0.074,-0.303 -0.093,-0.364 -0.11,-0.421 -0.13,-0.476 -0.137,-0.538 c -0.017,-0.14 -0.018,-0.213 -0.003,-0.286 0.042,-0.199 0.033,-0.364 -0.002,-0.5 0.122,0.024 0.244,0.047 0.367,0.069 l 0.407,0.074 c 0.572,0.103 1.164,0.21 1.732,0.343 0.135,0.031 0.329,0.099 0.545,0.173 0.835,0.284 1.414,0.461 1.838,0.321 0.027,0.006 0.18,0.074 0.281,0.12 0.253,0.113 0.568,0.254 0.965,0.272 0.563,0.024 1,0.095 1.417,0.23 0.198,0.065 0.4,0.178 0.614,0.297 0.293,0.163 0.597,0.332 0.959,0.424 0.186,0.046 0.37,0.098 0.555,0.151 0.428,0.122 0.852,0.256 1.273,0.389 l 0.387,0.122 C 11.05,1.682 10.899,1.718 10.746,1.778 10.514,1.869 10.367,1.981 10.269,2.056 10.246,2.074 10.225,2.092 10.202,2.106 10.2,2.104 10.174,2.104 10.122,2.097 9.652,2.025 9.208,1.868 8.739,1.701 8.055,1.457 7.347,1.206 6.498,1.206 5.102,1.206 4.027,1.077 3.012,0.788 2.105,0.531 1.366,0.214 0.752,-0.183 0.572,-0.298 0.341,-0.295 0.164,-0.176 0.095,-0.13 0.04,-0.069 0,0 m -1.088,-2.604 c -0.108,0 -0.219,0.022 -0.328,0.08 -0.167,0.091 -0.283,0.241 -0.327,0.423 -0.05,0.211 0.006,0.446 0.157,0.662 l 0.048,0.07 c 0.049,0.073 0.099,0.145 0.157,0.21 0.065,0.073 0.132,0.123 0.188,0.16 -0.038,0.237 -0.025,0.418 -0.005,0.584 0.014,0.127 0.048,0.245 0.085,0.365 0.012,0.041 0.025,0.082 0.036,0.125 0.08,0.342 0.133,0.658 0.16,0.964 0.025,0.279 0.021,0.284 -0.028,0.346 -0.148,0.183 -0.4,0.316 -0.667,0.456 C -1.74,1.909 -1.868,1.977 -1.99,2.05 l -2.586,1.582 c -0.061,0.037 -0.17,0.093 -0.299,0.16 -0.854,0.44 -1.42,0.764 -1.513,1.229 -0.014,0.065 -0.083,0.223 -0.133,0.303 -0.048,0.009 -0.129,0.016 -0.186,0.02 -0.281,0.023 -0.704,0.058 -1.04,0.413 l -0.198,0.204 c -0.471,0.48 -0.878,0.895 -0.932,1.925 -0.006,0.135 -0.005,0.273 -0.003,0.412 0.005,0.426 0,0.696 -0.173,0.87 -0.083,0.082 -0.22,0.138 -0.38,0.203 -0.196,0.079 -0.417,0.168 -0.624,0.339 -0.065,0.055 -0.138,0.133 -0.217,0.224 -0.086,0.097 -0.216,0.245 -0.304,0.275 -0.655,0.227 -1.442,0.246 -2.259,0.246 l -27.001,0.022 c -0.177,0 -0.334,-0.019 -0.469,-0.034 -0.326,-0.039 -0.697,-0.081 -0.997,0.186 -0.291,0.259 -0.331,0.656 -0.331,1.01 l -0.002,1.884 c 0,0.1 0.028,0.198 0.081,0.283 0.248,0.398 0.732,0.612 1.159,0.801 0.16,0.071 0.325,0.144 0.413,0.203 0.231,0.152 0.438,0.356 0.657,0.573 0.17,0.168 0.34,0.335 0.524,0.485 0.262,0.214 0.56,0.372 0.849,0.524 0.248,0.131 0.482,0.254 0.644,0.39 0.113,0.095 0.199,0.253 0.299,0.437 0.109,0.2 0.232,0.427 0.425,0.626 0.208,0.213 0.47,0.361 0.702,0.491 0.53,0.298 0.518,0.329 0.434,0.529 -0.04,0.095 -0.077,0.175 -0.111,0.248 -0.154,0.334 -0.287,0.622 -0.197,1.218 0.009,0.059 0.021,0.121 0.032,0.185 0.02,0.108 0.058,0.31 0.036,0.366 -0.051,0.028 -0.117,0.026 -0.166,0.026 -0.152,-0.003 -0.437,-0.006 -0.651,0.235 -0.213,0.239 -0.201,0.558 -0.168,0.809 0.035,0.252 0.017,0.415 10e-4,0.558 -0.067,0.608 0.138,0.893 0.845,1.172 2.113,0.84 3.827,1.125 5.387,0.896 0.091,-0.012 0.217,0.012 0.363,0.042 0.219,0.043 0.492,0.098 0.793,0.04 l 1.658,-0.314 c 0.681,-0.129 1.013,-0.258 1.523,-0.723 0.261,-0.237 0.365,-0.212 0.818,-0.052 0.227,0.08 0.484,0.171 0.797,0.213 0.511,0.068 0.988,0.022 1.45,-0.022 0.208,-0.02 0.417,-0.04 0.628,-0.048 0.233,-0.013 0.531,0.1 0.821,0.206 0.128,0.046 0.253,0.092 0.374,0.131 0.269,0.083 0.523,0.122 0.768,0.159 0.12,0.018 0.241,0.037 0.363,0.061 0.009,0.015 0.017,0.031 0.026,0.048 0.039,0.067 0.08,0.139 0.133,0.211 0.225,0.307 0.548,0.504 0.807,0.662 l 0.107,0.066 c 0.278,0.173 0.523,0.332 0.714,0.528 0.35,0.359 0.813,0.335 1.121,0.318 0.107,-0.005 0.268,-0.013 0.317,0.007 0.206,0.091 0.026,0.723 -0.082,1.101 -0.076,0.265 -0.141,0.494 -0.155,0.702 -0.037,0.591 0.29,1.008 0.553,1.343 0.206,0.263 0.331,0.435 0.327,0.602 -0.001,0.033 -0.011,0.077 -0.025,0.118 -0.18,-0.086 -0.47,-0.199 -0.801,-0.045 -0.531,0.244 -0.822,1.109 -0.659,1.601 0.133,0.408 0.552,0.672 0.858,0.866 l 0.105,0.067 c 0.256,0.172 0.53,0.318 0.795,0.459 0.367,0.196 0.713,0.38 0.986,0.62 0.115,0.1 0.222,0.2 0.328,0.298 0.239,0.221 0.485,0.449 0.775,0.652 0.021,0.074 0.04,0.212 0.051,0.301 0.023,0.172 0.047,0.35 0.11,0.505 0.295,0.736 1.019,1.312 1.657,1.82 0.208,0.165 0.405,0.322 0.569,0.472 l 0.297,0.277 c 0.472,0.443 0.96,0.901 1.554,1.267 0.48,0.296 1.108,0.665 1.694,0.885 0.777,0.292 1.145,0.27 1.878,0.227 l 0.133,-0.008 c 1.363,-0.077 2.776,-0.041 4.143,-0.007 0.69,0.018 1.378,0.036 2.062,0.039 0.182,0.002 0.46,0.036 0.754,0.072 0.975,0.121 2.08,0.258 2.709,-0.285 C 4.017,39.834 4.16,39.517 4.17,39.142 4.177,38.849 4.053,38.627 3.963,38.465 3.934,38.413 3.89,38.334 3.885,38.307 3.888,38.31 3.916,38.273 3.937,38.242 4.037,38.094 4.223,37.817 4.148,37.403 4.119,37.244 4.073,37.074 4.025,36.901 3.965,36.686 3.904,36.463 3.898,36.294 3.893,36.139 3.91,35.984 3.953,35.806 4.022,35.519 3.846,35.231 3.559,35.162 3.272,35.092 2.985,35.269 2.916,35.556 2.85,35.826 2.823,36.079 2.831,36.33 c 0.01,0.295 0.092,0.593 0.165,0.856 0.039,0.139 0.078,0.277 0.101,0.407 -0.007,10e-4 -0.028,0.026 -0.046,0.053 -0.087,0.129 -0.233,0.346 -0.233,0.666 0,0.292 0.123,0.512 0.212,0.673 0.027,0.048 0.068,0.12 0.073,0.146 C 3.1,39.216 3.072,39.239 3.058,39.252 2.788,39.485 1.74,39.355 1.177,39.286 0.851,39.245 0.543,39.207 0.299,39.206 -0.379,39.202 -1.06,39.185 -1.743,39.167 -3.132,39.133 -4.568,39.095 -5.974,39.175 l -0.135,0.008 c -0.69,0.04 -0.875,0.051 -1.439,-0.16 -0.507,-0.19 -1.105,-0.545 -1.51,-0.795 -0.502,-0.31 -0.93,-0.711 -1.383,-1.136 l -0.305,-0.284 c -0.181,-0.167 -0.398,-0.34 -0.627,-0.523 -0.535,-0.425 -1.141,-0.908 -1.332,-1.386 -0.014,-0.039 -0.03,-0.162 -0.041,-0.244 -0.046,-0.344 -0.103,-0.771 -0.453,-1.004 -0.247,-0.166 -0.471,-0.373 -0.707,-0.592 -0.113,-0.104 -0.228,-0.21 -0.35,-0.317 -0.365,-0.321 -0.783,-0.543 -1.188,-0.759 -0.251,-0.134 -0.489,-0.261 -0.702,-0.404 l -0.129,-0.083 c -0.111,-0.07 -0.371,-0.234 -0.424,-0.32 0.007,-0.02 0.04,-0.115 0.078,-0.195 0.13,0.063 0.311,0.14 0.534,0.122 0.62,-0.053 0.925,-0.757 0.936,-1.216 0.016,-0.563 -0.3,-0.966 -0.554,-1.289 -0.21,-0.268 -0.338,-0.44 -0.327,-0.616 0.006,-0.093 0.064,-0.297 0.115,-0.477 0.19,-0.666 0.544,-1.907 -0.514,-2.371 -0.279,-0.124 -0.57,-0.109 -0.804,-0.096 -0.1,0.006 -0.266,0.015 -0.311,-0.006 -0.262,-0.272 -0.577,-0.477 -0.902,-0.68 l -0.116,-0.071 c -0.197,-0.121 -0.402,-0.246 -0.502,-0.382 -0.026,-0.035 -0.046,-0.072 -0.066,-0.107 -0.099,-0.175 -0.265,-0.468 -0.705,-0.559 -0.151,-0.032 -0.301,-0.055 -0.451,-0.078 -0.215,-0.033 -0.419,-0.064 -0.611,-0.124 -0.105,-0.033 -0.214,-0.073 -0.325,-0.114 -0.369,-0.135 -0.789,-0.286 -1.231,-0.27 -0.23,0.009 -0.459,0.03 -0.686,0.052 -0.421,0.04 -0.817,0.078 -1.208,0.027 -0.203,-0.028 -0.387,-0.093 -0.582,-0.162 -0.485,-0.172 -1.15,-0.407 -1.894,0.27 -0.327,0.299 -0.458,0.36 -1.002,0.464 l -1.659,0.313 c -0.099,0.019 -0.231,-0.008 -0.384,-0.038 -0.202,-0.04 -0.452,-0.09 -0.725,-0.051 -1.371,0.199 -2.908,-0.064 -4.84,-0.832 -0.079,-0.031 -0.136,-0.056 -0.177,-0.075 0.017,-0.149 0.039,-0.36 0.013,-0.652 0.119,-0.017 0.245,-0.05 0.374,-0.119 0.759,-0.398 0.617,-1.159 0.549,-1.524 l -0.026,-0.149 c -0.043,-0.279 -0.013,-0.343 0.11,-0.61 0.039,-0.083 0.082,-0.176 0.127,-0.285 0.463,-1.107 -0.421,-1.604 -0.896,-1.871 -0.177,-0.099 -0.36,-0.201 -0.459,-0.304 -0.091,-0.094 -0.17,-0.238 -0.253,-0.392 -0.132,-0.243 -0.282,-0.519 -0.55,-0.744 -0.25,-0.21 -0.547,-0.366 -0.833,-0.517 -0.253,-0.134 -0.493,-0.26 -0.672,-0.406 -0.157,-0.129 -0.302,-0.273 -0.449,-0.418 -0.246,-0.244 -0.5,-0.495 -0.819,-0.706 -0.163,-0.107 -0.36,-0.194 -0.569,-0.286 -0.17,-0.076 -0.457,-0.203 -0.605,-0.312 l 0.002,-1.679 c 0,-0.063 0.003,-0.113 0.006,-0.153 0.044,0.005 0.092,0.01 0.133,0.015 0.17,0.02 0.367,0.041 0.591,0.041 l 27.002,-0.021 c 0.875,0 1.797,-0.024 2.607,-0.305 0.354,-0.122 0.597,-0.398 0.757,-0.58 0.037,-0.042 0.069,-0.082 0.099,-0.109 0.076,-0.062 0.198,-0.111 0.34,-0.168 0.223,-0.091 0.5,-0.202 0.735,-0.44 0.499,-0.499 0.491,-1.13 0.485,-1.637 C -7.814,8.168 -7.816,8.053 -7.81,7.941 -7.778,7.315 -7.604,7.137 -7.183,6.708 L -6.972,6.491 C -6.92,6.436 -6.805,6.423 -6.621,6.409 -6.397,6.39 -6.119,6.368 -5.875,6.185 -5.609,5.989 -5.43,5.549 -5.364,5.319 -5.198,5.159 -4.613,4.858 -4.385,4.74 -4.228,4.658 -4.096,4.589 -4.019,4.543 L -1.434,2.962 C -1.333,2.9 -1.224,2.844 -1.115,2.786 -0.78,2.61 -0.399,2.41 -0.112,2.051 0.2,1.66 0.179,1.309 0.151,0.997 0.196,1.083 0.247,1.166 0.305,1.245 0.41,1.392 0.534,1.505 0.643,1.605 0.772,1.723 0.851,1.799 0.861,1.861 0.849,1.851 0.79,1.949 0.75,2.017 0.621,2.235 0.444,2.534 0.526,2.889 0.559,3.026 0.643,3.145 0.763,3.22 0.808,3.248 0.905,3.302 1.031,3.371 1.206,3.467 1.647,3.708 1.917,3.889 1.516,4.765 1.649,5.842 1.768,6.806 1.804,7.097 1.839,7.378 1.855,7.635 1.87,7.867 1.88,8.093 1.89,8.317 1.902,8.612 2.155,8.853 2.446,8.828 2.74,8.815 2.969,8.566 2.956,8.272 2.946,8.039 2.936,7.805 2.92,7.568 2.904,7.292 2.867,6.989 2.828,6.675 2.715,5.762 2.587,4.728 2.999,4.137 3.085,4.012 3.122,3.806 3.088,3.659 3.006,3.308 2.646,3.044 1.695,2.518 1.819,2.305 1.969,2.024 1.915,1.689 1.906,1.639 1.895,1.591 1.882,1.546 c 0.265,0.096 0.545,0.186 0.839,0.269 1.113,0.317 2.278,0.458 3.777,0.458 0.665,0 1.256,0.211 1.884,0.434 0.495,0.176 1.009,0.359 1.582,0.445 0.484,0.073 0.738,-0.082 0.955,-0.248 0.071,-0.056 0.124,-0.095 0.216,-0.132 0.251,-0.099 0.547,-0.067 0.889,-0.031 0.345,0.038 0.735,0.08 1.134,-0.024 0.237,-0.061 0.403,-0.276 0.4,-0.521 C 13.55,1.271 12.305,0.886 11.706,0.702 L 11.133,0.522 C 10.702,0.385 10.269,0.248 9.831,0.124 9.636,0.068 9.439,0.012 9.243,-0.037 9.018,-0.093 8.788,-0.221 8.544,-0.357 8.296,-0.496 8.038,-0.64 7.741,-0.737 7.227,-0.903 6.702,-0.99 6.039,-1.019 5.846,-1.027 5.661,-1.11 5.465,-1.198 5.176,-1.328 4.818,-1.489 4.415,-1.359 4.24,-1.34 3.575,-1.567 3.253,-1.676 2.997,-1.763 2.766,-1.841 2.607,-1.877 2.012,-2.017 1.407,-2.126 0.822,-2.231 L 0.419,-2.304 C 0.064,-2.371 -0.292,-2.438 -0.647,-2.516 -0.771,-2.555 -0.925,-2.604 -1.088,-2.604"
               style="fill:#0069a7;fill-opacity:1;fill-rule:nonzero;stroke:none"
               id="path94" />
          </g>
        </g>
      </g>
      <g
         id="g96"
         transform="matrix(0.35277777,0,0,-0.35277777,-103.96525,-15.17476)">
        <g
           id="g98"
           clip-path="url(#clipPath102)">
          <g
             id="g104"
             transform="translate(111.2794,155.1094)">
            <path
               d="m 0,0 2.53,-4.027 v 4.017 c 0,0 0.285,0.2 0.97,0.2 0.697,0 0.981,-0.2 0.981,-0.2 v -6.979 c 0,0 -0.274,-0.201 -0.97,-0.201 -0.675,0 -0.949,0.18 -0.949,0.18 l -2.54,4.027 v -4.006 c 0,0 -0.285,-0.201 -0.981,-0.201 -0.675,0 -0.959,0.201 -0.959,0.201 v 6.979 c 0,0 0.263,0.2 0.97,0.2 C -0.274,0.19 0,0 0,0"
               style="fill:#0069a7;fill-opacity:1;fill-rule:nonzero;stroke:none"
               id="path106" />
          </g>
          <g
             id="g108"
             transform="translate(120.9247,151.1244)">
            <path
               d="m 0,0 h -1.846 v -1.781 h 2.668 c 0,0 0.2,-0.222 0.2,-0.707 0,-0.496 -0.2,-0.717 -0.2,-0.717 h -4.618 v 7.38 h 4.407 c 0,0 0.211,-0.222 0.211,-0.717 0,-0.485 -0.211,-0.717 -0.211,-0.717 H -1.846 V 1.434 H 0 C 0,1.434 0.2,1.202 0.2,0.717 0.2,0.211 0,0 0,0"
               style="fill:#0069a7;fill-opacity:1;fill-rule:nonzero;stroke:none"
               id="path110" />
          </g>
          <g
             id="g112"
             transform="translate(124.3183,148.1201)">
            <path
               d="m 0,0 -1.993,6.979 c 0,0 0.295,0.2 0.981,0.2 0.696,0 0.969,-0.2 0.969,-0.2 L 0.96,3.437 c 0.073,-0.264 0.105,-0.464 0.136,-0.58 0,0.032 0.052,0.327 0.116,0.569 l 0.876,3.553 c 0,0 0.336,0.2 0.811,0.2 0.454,0 0.769,-0.2 0.769,-0.2 L 4.501,3.437 4.638,2.857 c 0,0.095 0.063,0.358 0.127,0.569 l 1.034,3.553 c 0.009,0 0.284,0.2 0.959,0.2 0.684,0 0.98,-0.2 0.98,-0.2 L 5.713,0 C 5.713,0 5.429,-0.19 4.786,-0.201 4.037,-0.201 3.774,0 3.774,0 L 2.983,3.236 C 2.92,3.478 2.878,3.743 2.867,3.796 L 2.741,3.236 1.95,0 C 1.95,0 1.676,-0.201 0.98,-0.201 0.296,-0.201 0,0 0,0"
               style="fill:#0069a7;fill-opacity:1;fill-rule:nonzero;stroke:none"
               id="path114" />
          </g>
          <g
             id="g116"
             transform="translate(135.5755,155.1094)">
            <path
               d="m 0,0 0.865,-1.518 c 0.294,-0.516 0.453,-1.096 0.474,-1.17 0.021,0.074 0.168,0.643 0.475,1.17 L 2.699,0 c 0,0 0.264,0.19 0.907,0.19 0.727,0 1.033,-0.242 1.033,-0.242 L 2.309,-4.08 v -2.909 c 0,0 -0.274,-0.201 -0.97,-0.201 -0.686,0 -0.959,0.201 -0.959,0.201 v 2.941 l -2.331,3.996 c 0,0 0.317,0.242 1.045,0.242 C -0.285,0.19 0,0 0,0"
               style="fill:#0069a7;fill-opacity:1;fill-rule:nonzero;stroke:none"
               id="path118" />
          </g>
          <g
             id="g120"
             transform="translate(143.7442,149.269)">
            <path
               d="M 0,0 C 1.055,0 1.625,0.949 1.625,2.329 1.625,3.711 1.055,4.67 0,4.67 -1.054,4.67 -1.623,3.711 -1.623,2.329 -1.623,0.949 -1.054,0 0,0 m 0,-1.423 c -2.487,0 -3.573,1.455 -3.573,3.752 0,2.299 1.086,3.775 3.573,3.775 2.478,0 3.574,-1.476 3.574,-3.775 C 3.574,0.032 2.478,-1.423 0,-1.423"
               style="fill:#0069a7;fill-opacity:1;fill-rule:nonzero;stroke:none"
               id="path122" />
          </g>
          <g
             id="g124"
             transform="translate(150.8589,153.9394)">
            <path
               d="m 0,0 c -0.316,0 -0.548,-0.063 -0.548,-0.063 v -1.834 h 0.527 c 0.769,0 1.065,0.537 1.065,0.948 C 1.044,-0.411 0.675,0 0,0 m -0.548,-5.819 c 0,0 -0.285,-0.201 -0.98,-0.201 -0.686,0 -0.959,0.201 -0.959,0.201 v 6.883 c 0,0 0.79,0.369 2.245,0.369 2.203,0 3.226,-0.843 3.226,-2.319 0,-1.455 -1.118,-2.045 -1.255,-2.055 L 3.437,-5.777 C 3.226,-5.914 2.646,-6.02 2.256,-6.02 c -0.505,0 -0.907,0.18 -0.907,0.18 l -1.285,2.246 c -0.074,0.157 -0.18,0.273 -0.359,0.273 h -0.253 z"
               style="fill:#0069a7;fill-opacity:1;fill-rule:nonzero;stroke:none"
               id="path126" />
          </g>
          <g
             id="g128"
             transform="translate(161.7586,148.1724)">
            <path
               d="m 0,0 c 0,0 -0.496,-0.253 -1.297,-0.253 -0.685,0 -0.969,0.18 -0.969,0.18 l -2.499,3.394 v -3.373 c 0,0 -0.264,-0.201 -0.959,-0.201 -0.697,0 -0.981,0.201 -0.981,0.201 v 6.979 c 0,0 0.284,0.2 0.981,0.2 0.684,0 0.959,-0.2 0.959,-0.2 V 3.648 l 2.414,3.289 c 0,0 0.286,0.19 0.969,0.19 0.792,0 1.108,-0.263 1.108,-0.263 L -2.635,3.648 Z"
               style="fill:#0069a7;fill-opacity:1;fill-rule:nonzero;stroke:none"
               id="path130" />
          </g>
          <g
             id="g132"
             transform="translate(112.7376,144.7095)">
            <path
               d="m 0,0 c 0.068,-0.323 -0.103,-0.592 -0.29,-0.66 -0.234,0.144 -0.633,0.296 -1.094,0.296 -0.53,0 -0.875,-0.234 -0.875,-0.599 0,-0.31 0.255,-0.42 0.854,-0.634 l 0.682,-0.234 c 0.737,-0.262 1.108,-0.592 1.108,-1.267 0,-0.86 -0.605,-1.48 -1.899,-1.48 -0.937,0 -1.516,0.331 -1.716,0.502 -0.055,0.248 0.083,0.551 0.269,0.655 0.221,-0.166 0.874,-0.461 1.515,-0.461 0.537,0 0.881,0.234 0.881,0.633 0,0.269 -0.178,0.426 -0.523,0.544 l -1.115,0.364 c -0.572,0.186 -0.999,0.593 -0.999,1.24 0,0.881 0.62,1.439 1.811,1.439 C -0.647,0.338 -0.22,0.138 0,0"
               style="fill:#0069a7;fill-opacity:1;fill-rule:nonzero;stroke:none"
               id="path134" />
          </g>
          <g
             id="g136"
             transform="translate(113.5306,144.2963)">
            <path
               d="M 0,0 C 0,0 -0.097,0.111 -0.097,0.358 -0.097,0.593 0,0.702 0,0.702 h 3.601 c 0,0 0.095,-0.103 0.095,-0.344 C 3.696,0.111 3.601,0 3.601,0 H 2.272 v -4.02 c 0,0 -0.124,-0.097 -0.469,-0.097 -0.344,0 -0.481,0.097 -0.481,0.097 V 0 Z"
               style="fill:#0069a7;fill-opacity:1;fill-rule:nonzero;stroke:none"
               id="path138" />
          </g>
          <g
             id="g140"
             transform="translate(118.5016,142.0041)">
            <path
               d="M 0,0 H 1.447 L 0.897,1.315 C 0.84,1.439 0.737,1.762 0.723,1.804 0.709,1.769 0.619,1.473 0.558,1.315 Z m 1.192,2.899 1.927,-4.614 c 0,0 -0.145,-0.109 -0.489,-0.109 -0.331,0 -0.46,0.097 -0.46,0.097 l -0.441,1.032 h -2.011 l -0.433,-1.032 c 0,0 -0.126,-0.097 -0.448,-0.097 -0.352,0 -0.503,0.109 -0.503,0.109 l 1.928,4.614 c 0,0 0.123,0.096 0.461,0.096 0.338,0 0.469,-0.096 0.469,-0.096"
               style="fill:#0069a7;fill-opacity:1;fill-rule:nonzero;stroke:none"
               id="path142" />
          </g>
          <g
             id="g144"
             transform="translate(121.3263,144.2963)">
            <path
               d="M 0,0 C 0,0 -0.096,0.111 -0.096,0.358 -0.096,0.593 0,0.702 0,0.702 h 3.601 c 0,0 0.096,-0.103 0.096,-0.344 C 3.697,0.111 3.601,0 3.601,0 H 2.272 v -4.02 c 0,0 -0.125,-0.097 -0.468,-0.097 -0.344,0 -0.482,0.097 -0.482,0.097 V 0 Z"
               style="fill:#0069a7;fill-opacity:1;fill-rule:nonzero;stroke:none"
               id="path146" />
          </g>
          <g
             id="g148"
             transform="translate(128.1084,142.3963)">
            <path
               d="M 0,0 H -1.459 V -1.521 H 0.53 c 0,0 0.091,-0.104 0.091,-0.345 0,-0.241 -0.091,-0.351 -0.091,-0.351 h -2.939 v 4.82 h 2.795 c 0,0 0.09,-0.103 0.09,-0.345 0,-0.24 -0.09,-0.35 -0.09,-0.35 H -1.459 V 0.695 H 0 C 0,0.695 0.096,0.592 0.096,0.359 0.096,0.11 0,0 0,0"
               style="fill:#0069a7;fill-opacity:1;fill-rule:nonzero;stroke:none"
               id="path150" />
          </g>
          <g
             id="g152"
             transform="translate(133.0192,140.8273)">
            <path
               d="M 0,0 C 0.86,0 1.295,0.709 1.295,1.755 1.295,2.802 0.86,3.524 0,3.524 -0.868,3.524 -1.302,2.802 -1.302,1.755 -1.302,0.709 -0.868,0 0,0 m 0,-0.695 c -1.612,0 -2.252,0.963 -2.252,2.45 0,1.487 0.64,2.465 2.252,2.465 1.597,0 2.244,-0.978 2.244,-2.465 0,-1.487 -0.647,-2.45 -2.244,-2.45"
               style="fill:#0069a7;fill-opacity:1;fill-rule:nonzero;stroke:none"
               id="path154" />
          </g>
          <g
             id="g156"
             transform="translate(138.5077,142.3963)">
            <path
               d="m 0,0 h -1.46 v -2.12 c 0,0 -0.13,-0.097 -0.475,-0.097 -0.338,0 -0.475,0.097 -0.475,0.097 v 4.723 h 2.789 c 0,0 0.095,-0.103 0.095,-0.345 0,-0.24 -0.095,-0.35 -0.095,-0.35 H -1.46 V 0.695 H 0 C 0,0.695 0.097,0.592 0.097,0.359 0.097,0.11 0,0 0,0"
               style="fill:#0069a7;fill-opacity:1;fill-rule:nonzero;stroke:none"
               id="path158" />
          </g>
          <g
             id="g160"
             transform="translate(111.7664,134.3027)">
            <path
               d="M 0,0 C 0.86,0 1.294,0.709 1.294,1.756 1.294,2.802 0.86,3.525 0,3.525 -0.867,3.525 -1.301,2.802 -1.301,1.756 -1.301,0.709 -0.867,0 0,0 m 0,-0.696 c -1.611,0 -2.251,0.964 -2.251,2.452 0,1.486 0.64,2.464 2.251,2.464 1.597,0 2.244,-0.978 2.244,-2.464 C 2.244,0.268 1.597,-0.696 0,-0.696"
               style="fill:#0069a7;fill-opacity:1;fill-rule:nonzero;stroke:none"
               id="path162" />
          </g>
          <g
             id="g164"
             transform="translate(116.3806,137.8275)">
            <path
               d="m 0,0 c -0.427,0 -0.592,-0.068 -0.592,-0.068 v -1.577 h 0.524 c 0.653,0 0.928,0.385 0.928,0.826 C 0.86,-0.358 0.599,0 0,0 m 0.006,-2.34 h -0.598 v -1.735 c 0,0 -0.138,-0.097 -0.475,-0.097 -0.338,0 -0.483,0.097 -0.483,0.097 v 4.543 c 0,0 0.49,0.228 1.446,0.228 1.281,0 1.915,-0.572 1.915,-1.473 0,-0.944 -0.682,-1.563 -1.805,-1.563"
               style="fill:#0069a7;fill-opacity:1;fill-rule:nonzero;stroke:none"
               id="path166" />
          </g>
          <g
             id="g168"
             transform="translate(120.4848,137.8275)">
            <path
               d="m 0,0 c -0.427,0 -0.592,-0.068 -0.592,-0.068 v -1.577 h 0.523 c 0.655,0 0.929,0.385 0.929,0.826 C 0.86,-0.358 0.598,0 0,0 m 0.007,-2.34 h -0.599 v -1.735 c 0,0 -0.137,-0.097 -0.475,-0.097 -0.337,0 -0.482,0.097 -0.482,0.097 v 4.543 c 0,0 0.489,0.228 1.446,0.228 1.28,0 1.914,-0.572 1.914,-1.473 0,-0.944 -0.682,-1.563 -1.804,-1.563"
               style="fill:#0069a7;fill-opacity:1;fill-rule:nonzero;stroke:none"
               id="path170" />
          </g>
          <g
             id="g172"
             transform="translate(125.0917,134.3027)">
            <path
               d="M 0,0 C 0.861,0 1.293,0.709 1.293,1.756 1.293,2.802 0.861,3.525 0,3.525 -0.867,3.525 -1.301,2.802 -1.301,1.756 -1.301,0.709 -0.867,0 0,0 m 0,-0.696 c -1.611,0 -2.251,0.964 -2.251,2.452 0,1.486 0.64,2.464 2.251,2.464 1.597,0 2.244,-0.978 2.244,-2.464 C 2.244,0.268 1.597,-0.696 0,-0.696"
               style="fill:#0069a7;fill-opacity:1;fill-rule:nonzero;stroke:none"
               id="path174" />
          </g>
          <g
             id="g176"
             transform="translate(129.6369,137.8275)">
            <path
               d="m 0,0 c -0.303,0 -0.523,-0.068 -0.523,-0.068 v -1.57 h 0.695 c 0.538,0 0.765,0.392 0.765,0.826 C 0.937,-0.351 0.654,0 0,0 m -0.523,-4.075 c 0,0 -0.138,-0.097 -0.482,-0.097 -0.33,0 -0.476,0.097 -0.476,0.097 v 4.549 c 0,0 0.531,0.222 1.392,0.222 1.376,0 1.983,-0.572 1.983,-1.488 0,-0.895 -0.648,-1.328 -0.985,-1.369 l 1.24,-1.894 c -0.097,-0.062 -0.373,-0.117 -0.58,-0.117 -0.268,0 -0.454,0.083 -0.454,0.083 L 0.118,-2.52 c -0.07,0.117 -0.145,0.186 -0.283,0.186 h -0.358 z"
               style="fill:#0069a7;fill-opacity:1;fill-rule:nonzero;stroke:none"
               id="path178" />
          </g>
          <g
             id="g180"
             transform="translate(132.0276,137.7719)">
            <path
               d="M 0,0 C 0,0 -0.096,0.111 -0.096,0.359 -0.096,0.593 0,0.703 0,0.703 h 3.601 c 0,0 0.095,-0.103 0.095,-0.344 C 3.696,0.111 3.601,0 3.601,0 h -1.33 v -4.02 c 0,0 -0.123,-0.097 -0.468,-0.097 -0.344,0 -0.481,0.097 -0.481,0.097 V 0 Z"
               style="fill:#0069a7;fill-opacity:1;fill-rule:nonzero;stroke:none"
               id="path182" />
          </g>
          <g
             id="g184"
             transform="translate(139.1672,135.666)">
            <path
               d="m 0,0 v 2.713 c 0,0 0.139,0.095 0.483,0.095 0.336,0 0.468,-0.095 0.468,-0.095 V 0.172 c 0,-1.364 -0.365,-2.231 -1.886,-2.231 -1.522,0 -1.893,0.867 -1.893,2.231 v 2.541 c 0,0 0.137,0.095 0.475,0.095 0.336,0 0.48,-0.095 0.48,-0.095 V 0 c 0,-0.868 0.235,-1.363 0.938,-1.363 C -0.24,-1.363 0,-0.868 0,0"
               style="fill:#0069a7;fill-opacity:1;fill-rule:nonzero;stroke:none"
               id="path186" />
          </g>
          <g
             id="g188"
             transform="translate(142.0541,138.3852)">
            <path
               d="m 0,0 2.085,-3.215 -0.006,3.208 c 0,0 0.131,0.096 0.475,0.096 0.338,0 0.475,-0.096 0.475,-0.096 v -4.626 c 0,0 -0.131,-0.097 -0.475,-0.097 -0.331,0 -0.462,0.09 -0.462,0.09 l -2.086,3.194 0.008,-3.187 c 0,0 -0.138,-0.097 -0.482,-0.097 -0.338,0 -0.475,0.097 -0.475,0.097 v 4.626 c 0,0 0.13,0.096 0.475,0.096 C -0.139,0.089 0,0 0,0"
               style="fill:#0069a7;fill-opacity:1;fill-rule:nonzero;stroke:none"
               id="path190" />
          </g>
          <g
             id="g192"
             transform="translate(147.0742,138.3786)">
            <path
               d="m 0,0 v -4.626 c 0,0 -0.131,-0.097 -0.476,-0.097 -0.336,0 -0.481,0.097 -0.481,0.097 V 0 c 0,0 0.138,0.096 0.481,0.096 C -0.138,0.096 0,0 0,0"
               style="fill:#0069a7;fill-opacity:1;fill-rule:nonzero;stroke:none"
               id="path194" />
          </g>
          <g
             id="g196"
             transform="translate(147.8322,137.7719)">
            <path
               d="M 0,0 C 0,0 -0.097,0.111 -0.097,0.359 -0.097,0.593 0,0.703 0,0.703 h 3.601 c 0,0 0.096,-0.103 0.096,-0.344 C 3.697,0.111 3.601,0 3.601,0 h -1.33 v -4.02 c 0,0 -0.123,-0.097 -0.467,-0.097 -0.344,0 -0.482,0.097 -0.482,0.097 V 0 Z"
               style="fill:#0069a7;fill-opacity:1;fill-rule:nonzero;stroke:none"
               id="path198" />
          </g>
          <g
             id="g200"
             transform="translate(152.6806,138.3852)">
            <path
               d="m 0,0 0.737,-1.301 c 0.178,-0.31 0.308,-0.695 0.33,-0.737 0.006,0.042 0.145,0.42 0.33,0.737 L 2.148,0 c 0,0 0.123,0.089 0.447,0.089 0.357,0 0.503,-0.117 0.503,-0.117 L 1.541,-2.713 v -1.92 c 0,0 -0.13,-0.097 -0.474,-0.097 -0.338,0 -0.476,0.097 -0.476,0.097 v 1.934 l -1.555,2.671 c 0,0 0.157,0.117 0.516,0.117 C -0.131,0.089 0,0 0,0"
               style="fill:#0069a7;fill-opacity:1;fill-rule:nonzero;stroke:none"
               id="path202" />
          </g>
        </g>
      </g>
    </g>
  </g>
</svg>
