<?xml version="1.0" encoding="utf-8"?>
<!-- Generator: Adobe Illustrator 26.0.3, SVG Export Plug-In . SVG Version: 6.00 Build 0)  -->
<svg version="1.0" id="Layer_1" xmlns="http://www.w3.org/2000/svg" xmlns:xlink="http://www.w3.org/1999/xlink" x="0px" y="0px"
	 viewBox="0 0 256.5 187.1" style="enable-background:new 0 0 256.5 187.1;" xml:space="preserve">
<style type="text/css">
	.st0{fill:#822433;}
</style>
<path class="st0" d="M47.7,102.8H47c-0.2-1.2-0.9-2.3-1.9-3c-1-0.6-2.1-0.9-3.2-0.8c-1.4,0-2.7,0.3-3.9,1.1c-1,0.7-1.8,1.7-2.2,2.8
	c-1.2,3.3-0.8,7,1.1,9.9c1.2,1.5,3.1,2.4,5,2.3c1.2,0,2.4-0.3,3.4-1c0.9-0.9,1.7-1.9,2.2-3.1l0.7,0.1c-0.1,0.4-0.2,0.8-0.4,1.4
	s-0.3,1.1-0.5,1.6s-0.3,0.9-0.5,1.3c-0.4,0.1-0.8,0.2-1.2,0.3c-0.5,0.1-1.1,0.2-1.8,0.3s-1.3,0.1-1.9,0.2c-1.9,0-3.7-0.4-5.4-1.3
	c-1.3-0.7-2.4-1.9-3.1-3.2c-1.4-2.8-1.3-6.2,0.3-8.9c0.8-1.4,2-2.5,3.5-3.2c1.6-0.8,3.3-1.2,5.1-1.2c1,0,1.9,0.1,2.9,0.3
	c0.8,0.2,1.4,0.3,1.8,0.4c0.1,0.7,0.2,1.4,0.3,2C47.6,101.6,47.7,102.2,47.7,102.8z"/>
<path class="st0" d="M72.2,98.2c1.5,0,2.9,0.4,4.2,1.1c1.3,0.7,2.3,1.7,3,3c0.7,1.4,1.1,2.9,1.2,4.5c0,1.7-0.4,3.3-1.2,4.8
	c-0.7,1.3-1.8,2.4-3.1,3.2c-1.4,0.8-2.9,1.2-4.5,1.2c-3.1,0-5.9-1.6-7.4-4.3c-1.4-2.8-1.5-6-0.1-8.8c0.7-1.4,1.7-2.5,3-3.4
	C68.8,98.6,70.5,98.2,72.2,98.2z M78,107.8c0-1.6-0.2-3.3-0.8-4.8c-0.5-1.2-1.3-2.2-2.3-3c-1-0.7-2.1-1-3.3-1c-1,0-2,0.3-2.9,0.8
	c-0.9,0.6-1.6,1.5-2.1,2.5c-0.6,1.3-0.8,2.7-0.8,4.1c0,1.5,0.3,3.1,0.8,4.5c0.4,1.2,1.2,2.3,2.3,3c1.9,1.3,4.3,1.5,6.3,0.3
	c0.9-0.6,1.6-1.4,2.1-2.4C77.8,110.5,78,109.2,78,107.8z"/>
<path class="st0" d="M100.8,102.4v9.5c0,0.6,0,1.2,0.1,1.8c0.1,0.3,0.2,0.6,0.5,0.8c0.4,0.1,0.7,0.2,1.1,0.3c0.4,0,0.9,0.1,1.4,0.1
	c0.6,0,1.2,0,1.8-0.1c0.5-0.1,0.9-0.3,1.3-0.6c0.6-0.8,1-1.7,1.3-2.6l0.7,0.1c-0.1,0.3-0.1,0.7-0.2,1.2c-0.1,0.6-0.2,1.1-0.4,1.7
	c0,0.4-0.2,0.8-0.3,1.2H96.2v-0.6c0.6,0,1.1-0.1,1.6-0.3c0.4-0.2,0.6-0.5,0.7-0.9c0.1-0.7,0.1-1.4,0.1-2.1v-9.4c0-0.7,0-1.4-0.1-2.1
	c-0.1-0.4-0.3-0.7-0.7-0.9c-0.5-0.1-1.1-0.2-1.6-0.3v-0.6h7.1v0.6c-0.6,0-1.1,0.1-1.6,0.3c-0.4,0.1-0.6,0.4-0.7,0.9
	C100.8,101,100.7,101.7,100.8,102.4z"/>
<path class="st0" d="M128.9,102.4v9.5c0,0.6,0,1.2,0.1,1.8c0.1,0.3,0.2,0.6,0.5,0.8c0.3,0.1,0.6,0.2,1,0.3c0.4,0.1,0.9,0.1,1.4,0.1
	c0.6,0,1.2,0,1.8-0.1c0.5-0.1,0.9-0.3,1.3-0.6c0.6-0.8,1-1.7,1.3-2.6l0.7,0.1c0,0.4-0.1,0.8-0.2,1.2c-0.1,0.6-0.2,1.1-0.4,1.7
	c0,0.4-0.2,0.8-0.3,1.2h-11.8v-0.6c0.6,0,1.1-0.1,1.6-0.3c0.4-0.2,0.6-0.5,0.7-0.9c0.2-0.7,0.2-1.4,0.1-2.1v-9.4
	c0-0.7,0-1.4-0.1-2.1c-0.1-0.4-0.3-0.7-0.7-0.9c-0.5-0.1-1.1-0.2-1.6-0.3v-0.6h7.1v0.6c-0.6,0-1.1,0.1-1.6,0.3
	c-0.4,0.1-0.6,0.4-0.7,0.9C128.9,101,128.8,101.7,128.9,102.4z"/>
<path class="st0" d="M154.2,111.8v-9.4c0-0.7,0-1.4-0.1-2.1c-0.1-0.4-0.3-0.7-0.6-0.9c-0.5-0.1-1-0.2-1.5-0.3v-0.6h11.5
	c0,0.3,0,0.6,0.1,0.9c0,0.4,0.1,0.9,0.1,1.4s0.1,1.1,0.1,1.5l-0.7,0.1c-0.1-0.5-0.2-1-0.4-1.5c-0.1-0.3-0.3-0.6-0.5-0.9
	c-0.3-0.3-0.6-0.4-1-0.5c-0.6-0.1-1.3-0.2-1.9-0.2h-2c-0.3,0-0.6,0-0.7,0.1s-0.1,0.3-0.1,0.7v6h2.6c0.5,0,1.1,0,1.6-0.1
	c0.3-0.1,0.6-0.3,0.7-0.6c0.1-0.5,0.2-0.9,0.3-1.4h0.7v5.2h-0.7c0-0.4-0.1-0.7-0.2-1.1c-0.1-0.2-0.2-0.4-0.3-0.6
	c-0.2-0.1-0.5-0.2-0.7-0.3c-0.3,0-0.8-0.1-1.3-0.1h-2.6v4.6c0,0.6,0,1.1,0.1,1.7c0.1,0.3,0.3,0.7,0.5,0.9c0.2,0.2,0.6,0.2,1.1,0.3
	h1.6c0.7,0,1.3,0,2-0.1c0.5-0.1,0.9-0.3,1.3-0.6c0.6-0.8,1-1.7,1.3-2.6l0.7,0.1c0,0.4-0.1,0.8-0.2,1.2c-0.1,0.6-0.2,1.1-0.4,1.7
	c0,0.4-0.2,0.8-0.3,1.2h-12.4v-0.6c0.6,0,1.2-0.1,1.7-0.3c0.4-0.1,0.6-0.4,0.7-0.9C154.2,113.1,154.2,112.4,154.2,111.8z"/>
<path class="st0" d="M195.4,102.9l-0.6,0.1c-0.1-0.9-0.5-1.8-1.2-2.5c-0.5-0.6-1.1-1-1.8-1.2c-0.7-0.2-1.5-0.3-2.2-0.3
	c-1.8-0.1-3.6,0.6-4.9,2c-1.3,1.6-1.9,3.6-1.8,5.7c0,1.3,0.2,2.7,0.7,3.9c0.5,1.3,1.3,2.4,2.3,3.2c1.2,0.8,2.6,1.3,4.1,1.3
	c0.8,0,1.7-0.1,2.5-0.3c0.3-0.1,0.5-0.2,0.6-0.5c0.2-0.4,0.2-0.8,0.2-1.2v-2.3c0-0.4,0-0.9-0.1-1.3c-0.1-0.3-0.4-0.6-0.8-0.6
	c-0.7-0.1-1.3-0.2-2-0.3V108h6.7v0.6c-0.4,0-0.8,0.1-1.1,0.3c-0.2,0.1-0.4,0.3-0.4,0.6c-0.1,0.4-0.1,0.9-0.1,1.3v1.8
	c-0.1,0.8,0,1.6,0.2,2.4c-0.8,0.2-1.7,0.5-2.7,0.7s-2,0.3-3,0.4c-1.7,0-3.4-0.4-4.9-1.1c-2.9-1.4-4.7-4.4-4.6-7.6
	c0-1.8,0.4-3.5,1.4-5c0.9-1.4,2.1-2.4,3.6-3.1c1.5-0.7,3.1-1,4.7-1c1,0,2,0.1,3,0.3c0.9,0.2,1.5,0.3,2,0.4
	C195.1,100.3,195.2,101.6,195.4,102.9z"/>
<path class="st0" d="M213.4,111.8v-9.4c0-0.7,0-1.4-0.1-2.1c-0.1-0.4-0.3-0.7-0.6-0.9c-0.5-0.1-1-0.2-1.5-0.3v-0.6h11.5
	c0,0.3,0,0.6,0.1,0.9c0,0.4,0.1,0.9,0.1,1.4s0.1,1.1,0.1,1.5l-0.7,0.1c-0.1-0.5-0.2-1-0.4-1.5c-0.1-0.3-0.3-0.6-0.5-0.9
	c-0.3-0.3-0.6-0.4-1-0.5c-0.6-0.1-1.3-0.2-1.9-0.2h-2c-0.4,0-0.6,0-0.7,0.1s-0.1,0.3-0.1,0.7v6h2.6c0.5,0,1.1,0,1.6-0.1
	c0.3-0.1,0.6-0.3,0.7-0.6c0.1-0.5,0.2-0.9,0.3-1.4h0.7v5.2h-0.7c0-0.4-0.1-0.7-0.2-1.1c-0.1-0.2-0.2-0.4-0.3-0.6
	c-0.2-0.1-0.5-0.2-0.7-0.3c-0.3,0-0.8-0.1-1.3-0.1h-2.6v4.6c0,0.6,0,1.1,0.1,1.7c0.1,0.3,0.3,0.7,0.5,0.9c0.3,0.2,0.7,0.3,1.1,0.3
	h1.6c0.7,0,1.3,0,2-0.1c0.5-0.1,0.9-0.3,1.3-0.6c0.6-0.8,1-1.7,1.3-2.6l0.7,0.1c0,0.4-0.1,0.8-0.3,1.2c-0.1,0.6-0.2,1.1-0.4,1.7
	c0,0.4-0.2,0.8-0.3,1.2H211v-0.6c0.6,0,1.2-0.1,1.7-0.3c0.4-0.1,0.6-0.4,0.7-0.9C213.3,113.1,213.3,112.4,213.4,111.8z"/>
<path class="st0" d="M27.9,45h16.3v1.4c-1.2,0-2.4,0.2-3.6,0.6c-0.9,0.4-1.4,1.2-1.5,2.1c-0.2,1.6-0.3,3.2-0.3,4.8v12.9
	c0,2.3,0.2,4.6,0.6,6.9c0.3,1.8,1,3.5,2,5.1c1.8,2.8,4.8,4.2,8.9,4.2c1.8,0,3.6-0.4,5.2-1.2c1.5-0.8,2.8-2,3.8-3.4
	c1.1-1.9,1.8-4,2.2-6.1c0.4-2.5,0.6-5.1,0.6-7.6v-3.3c0-3.2-0.1-5.7-0.2-7.6s-0.2-3.3-0.3-4.2c-0.2-1-0.8-1.9-1.7-2.3
	c-1.4-0.6-2.9-0.9-4.4-0.9V45h14.8v1.4c-3.3,0-5.1,1.1-5.3,3.2c-0.1,0.9-0.2,2.3-0.3,4.2s-0.2,4.4-0.2,7.6v4.1
	c0.1,3.1-0.3,6.3-1,9.3c-0.6,2.5-1.9,4.9-3.7,6.8c-1.5,1.4-3.2,2.6-5.1,3.3c-2,0.8-4.1,1.2-6.3,1.2c-1.8,0-3.6-0.2-5.3-0.7
	c-1.8-0.5-3.4-1.3-4.9-2.4c-1.7-1.4-2.9-3.2-3.6-5.3c-0.9-2.8-1.3-5.7-1.2-8.6v-15c0.2-1.7,0.2-3.4-0.2-5c-0.1-0.9-0.7-1.7-1.5-2
	c-1.2-0.5-2.5-0.7-3.8-0.7V45z"/>
<path class="st0" d="M111.1,61.4v24.2h-1.6L82.8,53h-0.1v15.7c0,3.2,0.1,5.7,0.2,7.6c0.1,1.9,0.2,3.2,0.3,4.1c0.1,1,0.7,1.9,1.6,2.3
	c1.4,0.6,2.9,0.9,4.4,0.9v1.5H74.4v-1.4c3.3,0,5.1-1.1,5.3-3.2c0.1-0.9,0.2-2.3,0.3-4.1s0.1-4.4,0.2-7.6V55.4c0.1-1.5,0-3-0.2-4.5
	c-0.1-0.8-0.5-1.6-1-2.3c-0.6-0.7-1.3-1.2-2.2-1.5c-1-0.3-2.1-0.5-3.2-0.6V45h9l25.9,31.1h0.1V61.4c0-3.2-0.1-5.7-0.2-7.6
	s-0.2-3.2-0.3-4.1c-0.1-1-0.7-1.9-1.6-2.3c-1.4-0.6-2.9-0.9-4.4-0.9V45h14.8v1.4c-3.3,0-5.1,1.1-5.3,3.2c-0.1,0.9-0.2,2.3-0.3,4.1
	S111.1,58.2,111.1,61.4z"/>
<path class="st0" d="M132.3,54v22.1c0,1.6,0.1,3.3,0.3,4.9c0.1,0.9,0.8,1.7,1.6,2c1.2,0.4,2.4,0.6,3.7,0.6v1.5h-16.4v-1.4
	c1.3,0,2.5-0.2,3.7-0.6c0.8-0.3,1.4-1.1,1.5-2c0.2-1.6,0.3-3.3,0.3-4.9V54c0-1.6-0.1-3.2-0.3-4.8c-0.2-0.9-0.7-1.7-1.5-2.1
	c-1.2-0.4-2.4-0.6-3.7-0.6V45h16.3v1.4c-1.3,0-2.5,0.2-3.7,0.6c-0.9,0.4-1.5,1.2-1.6,2.1C132.3,50.7,132.2,52.4,132.3,54z"/>
<path class="st0" d="M163.1,44.1c3.4,0,6.8,0.9,9.8,2.6c2.9,1.7,5.4,4.2,7.1,7.1c1.9,3.3,2.8,7,2.7,10.7c0.1,3.9-0.9,7.8-2.8,11.3
	c-1.7,3.1-4.3,5.7-7.4,7.5c-3.2,1.8-6.9,2.8-10.6,2.7c-3.6,0.1-7.2-0.9-10.3-2.7c-3-1.8-5.4-4.3-7-7.3c-1.7-3.2-2.6-6.8-2.6-10.5
	c0-3.5,0.8-7,2.4-10.2c1.6-3.3,4.1-6,7.1-8C155,45.2,159,44.1,163.1,44.1z M176.7,66.8c0.1-3.9-0.6-7.7-2-11.3c-1.1-2.8-3-5.2-5.4-7
	c-2.3-1.6-5.1-2.5-7.9-2.4c-2.4,0-4.7,0.7-6.7,2c-2.1,1.5-3.8,3.5-4.8,5.9c-1.3,3.1-1.9,6.4-1.9,9.7c0,3.6,0.6,7.2,1.9,10.5
	c1.1,2.8,3,5.2,5.3,7.1c2.3,1.7,5.1,2.6,7.9,2.6c2.4,0,4.8-0.6,6.8-1.9c2.1-1.4,3.8-3.4,4.8-5.7C176.2,73.4,176.9,70.1,176.7,66.8z"
	/>
<path class="st0" d="M222.8,61.4v24.2h-1.6L194.4,53h-0.1v15.7c0,3.2,0.1,5.7,0.2,7.6s0.2,3.2,0.3,4.1c0.1,1,0.7,1.9,1.6,2.3
	c1.4,0.6,2.9,0.9,4.4,0.9v1.5H186v-1.4c3.3,0,5.1-1.1,5.3-3.2c0.1-0.9,0.2-2.3,0.3-4.1s0.2-4.4,0.2-7.6V55.4c0.1-1.5,0-3-0.2-4.5
	c-0.1-0.8-0.5-1.6-1-2.3c-0.6-0.7-1.3-1.2-2.2-1.5c-1-0.3-2.1-0.5-3.2-0.6V45h9l26,31.1h0.1V61.4c0-3.2-0.1-5.7-0.2-7.6
	s-0.2-3.2-0.3-4.1c-0.1-1-0.7-1.9-1.6-2.3c-1.4-0.6-2.9-0.9-4.4-0.9V45h14.8v1.4c-3.3,0-5.1,1.1-5.3,3.2c-0.1,0.9-0.2,2.3-0.3,4.1
	S222.8,58.2,222.8,61.4z"/>
<polygon class="st0" points="28.5,92.9 28.5,91.9 228,91.9 228,92.9 "/>
<path class="st0" d="M67.3,134.5c0-1.2-0.1-1.3-1.1-1.4v-0.4h5.7c0,0.3,0.1,1.1,0.1,1.9h-0.4c0-0.4-0.2-0.8-0.4-1.1
	c-0.2-0.2-0.5-0.3-1.3-0.3h-0.8c-0.5,0-0.5,0-0.5,0.4v2.5h1.3c1.1,0,1.1-0.1,1.2-0.9h0.4v2.4h-0.4c-0.1-0.9-0.2-0.9-1.2-0.9h-1.3
	v1.7c0,1.2,0.1,1.3,1.3,1.4v0.4h-3.8v-0.4c1.1-0.1,1.1-0.2,1.1-1.4L67.3,134.5L67.3,134.5z"/>
<path class="st0" d="M76.4,136.6c-0.1-2.2,1.7-4,3.9-4.1c0,0,0.1,0,0.1,0c2.1-0.1,3.9,1.5,4,3.6c0,0.1,0,0.2,0,0.2
	c0.1,2.1-1.6,3.9-3.7,4c-0.1,0-0.1,0-0.2,0c-2.1,0.2-3.9-1.3-4.1-3.4C76.4,136.8,76.4,136.7,76.4,136.6z M80.5,139.9
	c1.3,0,2.3-0.8,2.3-3.2c0-1.9-0.9-3.7-2.6-3.7c-1.4,0-2.3,1.2-2.3,3.2C77.9,138.4,78.9,139.9,80.5,139.9z"/>
<path class="st0" d="M92,132.7v0.4c-1.1,0.1-1.2,0.2-1.2,1.4v2.3c0,1.8,0.7,2.9,2.1,2.9c1.7,0,2.2-1.3,2.2-3.1v-0.8
	c0-0.7,0-1.5-0.1-2.2c-0.1-0.4-0.4-0.6-1.3-0.6v-0.4h3.2v0.5c-0.7,0-1.1,0.2-1.1,0.6c-0.1,0.7-0.1,1.5-0.1,2.2v1
	c0.1,1-0.3,1.9-0.9,2.6c-0.6,0.5-1.5,0.8-2.3,0.8c-0.8,0.1-1.6-0.1-2.2-0.6c-0.7-0.7-1-1.7-0.9-2.7v-2.6c0-1.2-0.1-1.3-1.2-1.4v-0.4
	H92V132.7z"/>
<path class="st0" d="M108.6,140.3h-0.5l-5.1-5.7l0,0v2.4c0,0.7,0,1.4,0.1,2.1c0.1,0.4,0.4,0.6,1.3,0.6v0.4h-3.2v-0.4
	c0.7,0,1.1-0.2,1.1-0.6c0-0.4,0.1-0.9,0.1-2.1v-2.2c0-1.3-0.3-1.6-1.4-1.7v-0.4h2.1l5,5.5l0,0v-2.3c0-0.7,0-1.5-0.1-2.2
	c-0.1-0.4-0.4-0.6-1.3-0.6v-0.4h3.2v0.4c-0.7,0-1.1,0.2-1.1,0.6c-0.1,0.7-0.1,1.5-0.1,2.2v4.4H108.6z"/>
<path class="st0" d="M117.6,132.7c1.2-0.1,2.4,0.3,3.4,1c0.7,0.6,1,1.5,1,2.4c0,2.8-2.2,4-4.9,4h-3.3v-0.4c1.1-0.1,1.2-0.2,1.2-1.4
	v-3.9c0-1.2-0.1-1.3-1.1-1.4v-0.4L117.6,132.7L117.6,132.7z M116.3,138.5c0,1,0.1,1.2,1.2,1.2c2.1,0,3-1.3,3-3.2
	c0-2.3-1.2-3.3-3.2-3.3c-0.3,0-0.5,0-0.8,0.1c-0.1,0.1-0.1,0.2-0.1,0.6L116.3,138.5L116.3,138.5z"/>
<path class="st0" d="M127.4,134.5c0-1.2-0.1-1.3-1.1-1.4v-0.4h5.9c0,0.3,0.1,1.1,0.1,1.9h-0.4c0-0.4-0.2-0.8-0.4-1.1
	c-0.2-0.2-0.5-0.3-1.3-0.3h-0.9c-0.5,0-0.5,0-0.5,0.4v2.4h1.3c1.1,0,1.1-0.1,1.2-0.9h0.4v2.5h-0.4c-0.1-0.9-0.2-1-1.2-1h-1.3v1.8
	c0,0.7,0.1,1,0.3,1.1c0.4,0.1,0.9,0.1,1.3,0.1c0.5,0.1,1.1-0.1,1.5-0.4c0.3-0.3,0.5-0.7,0.6-1.1l0.4,0.1c-0.1,0.4-0.3,1.6-0.4,2
	h-6.3v-0.4c1.2-0.1,1.3-0.2,1.3-1.4v-3.9L127.4,134.5z"/>
<path class="st0" d="M140.8,132.7c1.2-0.1,2.4,0.3,3.4,1c0.7,0.6,1,1.5,1,2.4c0,2.8-2.2,4-4.9,4H137v-0.4c1.1-0.1,1.2-0.2,1.2-1.4
	v-3.9c0-1.2-0.1-1.3-1.1-1.4v-0.4L140.8,132.7L140.8,132.7z M139.5,138.5c0,1,0.1,1.2,1.2,1.2c2.1,0,3-1.3,3-3.2
	c0-2.3-1.2-3.3-3.2-3.3c-0.3,0-0.5,0-0.8,0.1c-0.1,0.1-0.1,0.2-0.1,0.6L139.5,138.5L139.5,138.5z"/>
<path class="st0" d="M157.2,140.2v-0.4l0.9-0.1c0.5-0.1,0.6-0.1,0.6-0.9v-4.2c0-0.9-0.1-1-0.7-1h-1.2v-0.4c1-0.2,2.1-0.4,3.1-0.7
	v6.3c0,0.8,0.1,0.8,0.6,0.9l0.9,0.1v0.4H157.2z"/>
<path class="st0" d="M171.4,133c-0.8,1.3-2.9,5.2-5.3,9.7l-1.2,0.2l-0.1-0.2c1.9-2.7,3.9-6.1,5.4-8.8H165v-1.2h6.2L171.4,133z"/>
<path class="st0" d="M174.4,142.6c2.3-0.4,4.3-2,5-4.3c-0.6,0.4-1.4,0.6-2.1,0.6c-1.5,0-2.6-1.3-2.6-2.8c0,0,0,0,0,0
	c-0.1-1.8,1.3-3.4,3.1-3.5c0,0,0.1,0,0.1,0c2.2,0,3.1,2,3.1,3.9c0,2.7-1.7,5.1-4.2,6c-0.8,0.3-1.6,0.5-2.4,0.5V142.6z M176.1,135.3
	c0,2,1.2,2.7,2.3,2.7c0.4,0,0.8-0.1,1.2-0.2c0.1-0.4,0.1-0.9,0.1-1.3c0-1.1-0.2-3.5-2.1-3.5C176.7,133,176.1,134.2,176.1,135.3z"/>
<path class="st0" d="M190,133.7l-3.6,0.3l-0.3,1.7c1.9,0,4.2,0.7,4.2,3.2c0,1.1-0.5,2.1-1.4,2.7c-1.2,0.8-2.6,1.3-4,1.3l-0.1-0.4
	c0.7-0.1,4.1-0.7,4.1-3.4c0-2-2-2.3-3.5-2.3l0.6-3.9l4.2-0.4L190,133.7z"/>
</svg>
